<?xml version="1.0" encoding="UTF-8" standalone="no"?>
<!DOCTYPE svg PUBLIC "-//W3C//DTD SVG 1.1//EN" "http://www.w3.org/Graphics/SVG/1.1/DTD/svg11.dtd">
<svg width="100%" height="100%" viewBox="0 0 600 600" version="1.1" xmlns="http://www.w3.org/2000/svg" xmlns:xlink="http://www.w3.org/1999/xlink" xml:space="preserve" xmlns:serif="http://www.serif.com/" style="fill-rule:evenodd;clip-rule:evenodd;stroke-linejoin:round;stroke-miterlimit:2;">
    <g transform="matrix(2.02703,0,0,3.15789,-36.4865,-82.1053)">
        <path d="M314,26L18,26L18,216L314,216L314,26ZM312.52,26.95L312.52,215.05C290.971,215.05 41.029,215.05 19.48,215.05C19.48,201.218 19.48,40.782 19.48,26.95L312.52,26.95Z" style="fill:rgb(107,114,128);"/>
    </g>
    <g transform="matrix(1,0,0,1,-56,180.338)">
        <path d="M109.536,170.428L89.614,170.428L89.614,138.202L115.981,138.202L124.77,94.989L89.614,94.989L89.614,62.616L131.362,62.616L142.935,5.487L175.747,5.487L164.175,62.616L196.548,62.616L207.827,5.487L241.812,5.487L230.093,62.616L250.308,62.616L250.308,94.989L223.501,94.989L214.712,138.202L250.308,138.202L250.308,170.428L208.12,170.428L196.548,227.557L163.882,227.557L175.161,170.428L142.642,170.428L131.069,227.557L97.964,227.557L109.536,170.428ZM157.729,94.989L149.087,138.202L181.606,138.202L190.103,94.989L157.729,94.989Z" style="fill:rgb(75,85,99);fill-rule:nonzero;"/>
    </g>
    <g transform="matrix(1,0,0,1,128,184)">
        <path d="M224.185,-135.48C258.853,-135.48 285.952,-123.11 305.483,-98.37C328.758,-69.073 340.395,-20.489 340.395,47.382C340.395,115.09 328.677,163.755 305.239,193.378C285.871,217.792 258.853,229.999 224.185,229.999C189.354,229.999 161.278,216.612 139.956,189.838C118.634,163.064 107.974,115.334 107.974,46.649C107.974,-20.734 119.692,-69.236 143.13,-98.859C162.498,-123.273 189.517,-135.48 224.185,-135.48ZM224.185,-78.595C215.884,-78.595 208.478,-75.95 201.968,-70.66C195.457,-65.371 190.412,-55.89 186.831,-42.218C182.111,-24.477 179.751,5.389 179.751,47.382C179.751,89.374 181.867,118.223 186.099,133.929C190.33,149.636 195.661,160.093 202.09,165.302C208.519,170.51 215.884,173.114 224.185,173.114C232.485,173.114 239.891,170.469 246.401,165.179C252.912,159.89 257.957,150.409 261.538,136.737C266.258,119.159 268.618,89.374 268.618,47.382C268.618,5.389 266.502,-23.46 262.27,-39.166C258.039,-54.873 252.708,-65.371 246.279,-70.66C239.85,-75.95 232.485,-78.595 224.185,-78.595Z" style="fill:rgb(129,140,248);fill-rule:nonzero;"/>
    </g>
</svg>
