<?xml version="1.0" encoding="UTF-8" standalone="no"?>
<!DOCTYPE svg PUBLIC "-//W3C//DTD SVG 1.1//EN" "http://www.w3.org/Graphics/SVG/1.1/DTD/svg11.dtd">
<svg width="100%" height="100%" viewBox="0 0 600 600" version="1.1" xmlns="http://www.w3.org/2000/svg" xmlns:xlink="http://www.w3.org/1999/xlink" xml:space="preserve" xmlns:serif="http://www.serif.com/" style="fill-rule:evenodd;clip-rule:evenodd;stroke-linejoin:round;stroke-miterlimit:2;">
    <g transform="matrix(2.02703,0,0,3.15789,-36.4865,-82.1053)">
        <path d="M314,26L18,26L18,216L314,216L314,26ZM312.52,26.95L312.52,215.05C290.971,215.05 41.029,215.05 19.48,215.05C19.48,201.218 19.48,40.782 19.48,26.95L312.52,26.95Z" style="fill:rgb(107,114,128);"/>
    </g>
    <g transform="matrix(1,0,0,1,-56,180.338)">
        <path d="M109.536,170.428L89.614,170.428L89.614,138.202L115.981,138.202L124.77,94.989L89.614,94.989L89.614,62.616L131.362,62.616L142.935,5.487L175.747,5.487L164.175,62.616L196.548,62.616L207.827,5.487L241.812,5.487L230.093,62.616L250.308,62.616L250.308,94.989L223.501,94.989L214.712,138.202L250.308,138.202L250.308,170.428L208.12,170.428L196.548,227.557L163.882,227.557L175.161,170.428L142.642,170.428L131.069,227.557L97.964,227.557L109.536,170.428ZM157.729,94.989L149.087,138.202L181.606,138.202L190.103,94.989L157.729,94.989Z" style="fill:rgb(75,85,99);fill-rule:nonzero;"/>
    </g>
    <g transform="matrix(1,0,0,1,128,184)">
        <path d="M283.755,223.895L215.151,223.895L215.151,-34.65C190.086,-11.212 160.545,6.122 126.528,17.352L126.528,-44.904C144.432,-50.763 163.882,-61.871 184.878,-78.229C205.874,-94.586 220.278,-113.67 228.091,-135.48L283.755,-135.48L283.755,223.895Z" style="fill:rgb(129,140,248);fill-rule:nonzero;"/>
    </g>
</svg>
