<?xml version="1.0" encoding="UTF-8" standalone="no"?>
<!DOCTYPE svg PUBLIC "-//W3C//DTD SVG 1.1//EN" "http://www.w3.org/Graphics/SVG/1.1/DTD/svg11.dtd">
<svg width="100%" height="100%" viewBox="0 0 600 600" version="1.1" xmlns="http://www.w3.org/2000/svg" xmlns:xlink="http://www.w3.org/1999/xlink" xml:space="preserve" xmlns:serif="http://www.serif.com/" style="fill-rule:evenodd;clip-rule:evenodd;stroke-linejoin:round;stroke-miterlimit:2;">
    <g transform="matrix(2.02703,0,0,3.15789,-36.4865,-82.1053)">
        <path d="M314,26L18,26L18,216L314,216L314,26ZM312.52,26.95L312.52,215.05C290.971,215.05 41.029,215.05 19.48,215.05C19.48,201.218 19.48,40.782 19.48,26.95L312.52,26.95Z" style="fill:rgb(107,114,128);"/>
    </g>
    <g transform="matrix(1,0,0,1,-56,180.338)">
        <path d="M109.536,170.428L89.614,170.428L89.614,138.202L115.981,138.202L124.77,94.989L89.614,94.989L89.614,62.616L131.362,62.616L142.935,5.487L175.747,5.487L164.175,62.616L196.548,62.616L207.827,5.487L241.812,5.487L230.093,62.616L250.308,62.616L250.308,94.989L223.501,94.989L214.712,138.202L250.308,138.202L250.308,170.428L208.12,170.428L196.548,227.557L163.882,227.557L175.161,170.428L142.642,170.428L131.069,227.557L97.964,227.557L109.536,170.428ZM157.729,94.989L149.087,138.202L181.606,138.202L190.103,94.989L157.729,94.989Z" style="fill:rgb(75,85,99);fill-rule:nonzero;"/>
    </g>
    <g transform="matrix(1,0,0,1,128,184)">
        <path d="M339.907,160.175L339.907,223.895L99.429,223.895C102.033,199.807 109.845,176.98 122.866,155.414C135.887,133.848 161.603,105.243 200.015,69.598C230.939,40.79 249.901,21.259 256.899,11.005C266.34,-3.155 271.06,-17.153 271.06,-30.988C271.06,-46.287 266.95,-58.046 258.73,-66.266C250.511,-74.485 239.159,-78.595 224.673,-78.595C210.35,-78.595 198.957,-74.282 190.493,-65.655C182.03,-57.029 177.147,-42.706 175.845,-22.687L107.485,-29.523C111.554,-67.283 124.331,-94.383 145.815,-110.822C167.3,-127.26 194.155,-135.48 226.382,-135.48C261.701,-135.48 289.451,-125.958 309.634,-106.915C329.816,-87.872 339.907,-64.191 339.907,-35.87C339.907,-19.757 337.018,-4.417 331.24,10.15C325.462,24.717 316.307,39.976 303.774,55.927C295.474,66.506 280.5,81.724 258.853,101.581C237.205,121.438 223.493,134.621 217.715,141.132C211.937,147.642 207.257,153.99 203.677,160.175L339.907,160.175Z" style="fill:rgb(129,140,248);fill-rule:nonzero;"/>
    </g>
</svg>
