<?xml version="1.0" encoding="utf-8"?>
<!-- Generator: Adobe Illustrator 25.0.0, SVG Export Plug-In . SVG Version: 6.00 Build 0)  -->
<svg version="1.1" id="图层_1" xmlns="http://www.w3.org/2000/svg" xmlns:xlink="http://www.w3.org/1999/xlink" x="0px" y="0px"
	 viewBox="0 0 1024 1024" style="enable-background:new 0 0 1024 1024;" xml:space="preserve">
<style type="text/css">
	.st0{fill:#FFFFFF;}
</style>
<g>
	<rect x="0.29" y="-0.14" width="1024" height="1024"/>
	<g>
		<path class="st0" d="M404.79,505.88c-17.04,0-30.85,13.81-30.85,30.85s13.81,30.85,30.85,30.85s30.85-13.81,30.85-30.85
			S421.83,505.88,404.79,505.88z M404.79,558.21c-11.86,0-21.48-9.62-21.48-21.48s9.62-21.48,21.48-21.48
			c11.86,0,21.48,9.62,21.48,21.48S416.66,558.21,404.79,558.21z"/>
		<polygon class="st0" points="730.14,506.84 730.14,532.16 697.84,532.16 697.84,506.84 688.43,506.84 688.43,567.06 
			697.84,567.06 697.84,541.54 730.14,541.54 730.14,567.06 739.55,567.06 739.55,506.84 		"/>
		<path class="st0" d="M616.95,567.01l-17.49-18.35c8.81-2.71,15.13-11,15.13-20.44c0-11.79-9.59-21.38-21.38-21.38h-23.69v60.23
			h9.52v-26.02l24.76,25.97h13.15V567.01z M579.04,516.36h14.17c6.54,0,11.86,5.32,11.86,11.86s-5.32,11.86-11.86,11.86h-14.17
			V516.36z"/>
		<polygon class="st0" points="548.19,467.36 536.91,491.7 542.37,502.9 555.33,474.96 819.42,372.22 708.87,691.05 487.98,620.2 
			507.83,577.39 321.94,662.71 205.25,336.8 493.91,443.07 541.03,540.08 514.62,540.08 501.65,567.06 512.62,567.06 521.48,548.82 
			545.27,548.82 554.14,567.06 565.1,567.06 500.91,435.35 189.17,320.57 316.39,675.9 488.03,597.12 474.61,626.07 714.91,703.15 
			835.41,355.63 		"/>
		<polygon class="st0" points="487.82,506.8 487.82,548.17 446.18,506.84 442.33,506.84 442.33,567.06 451.74,567.06 451.74,525.64 
			493.52,567.06 497.23,567.06 497.23,506.8 		"/>
		<polygon class="st0" points="306.38,506.84 302.32,506.84 302.32,567.06 311.98,567.06 311.98,533.18 334.89,568.39 357.8,533.18 
			357.8,567.06 367.46,567.06 367.46,506.84 363.4,506.84 334.89,550.68 		"/>
		<path class="st0" d="M670.25,544.65c-3.15,7.94-10.9,13.56-19.97,13.56c-11.86,0-21.48-9.62-21.48-21.48s9.62-21.48,21.48-21.48
			c9.07,0,16.82,5.62,19.97,13.56h9.86c-3.49-13.2-15.52-22.94-29.83-22.94c-17.04,0-30.85,13.81-30.85,30.85
			s13.81,30.85,30.85,30.85c14.3,0,26.33-9.73,29.83-22.94h-9.86V544.65z"/>
	</g>
</g>
</svg>
