<?xml version="1.0" encoding="utf-8"?>
<!-- Generator: Adobe Illustrator 25.0.0, SVG Export Plug-In . SVG Version: 6.00 Build 0)  -->
<svg version="1.1" id="图层_1" xmlns="http://www.w3.org/2000/svg" xmlns:xlink="http://www.w3.org/1999/xlink" x="0px" y="0px"
	 viewBox="0 0 1024 1024" style="enable-background:new 0 0 1024 1024;" xml:space="preserve">
<style type="text/css">
	.st0{fill:#2F292B;}
</style>
<g>
	<path class="st0" d="M400.16,505.63c-17.77,0-32.18,14.41-32.18,32.18s14.41,32.18,32.18,32.18s32.18-14.41,32.18-32.18
		S417.93,505.63,400.16,505.63z M400.16,560.21c-12.37,0-22.41-10.03-22.41-22.41s10.03-22.41,22.41-22.41
		c12.37,0,22.41,10.03,22.41,22.41S412.53,560.21,400.16,560.21z"/>
	<polygon class="st0" points="739.54,506.62 739.54,533.04 705.84,533.04 705.84,506.62 696.03,506.62 696.03,569.45 705.84,569.45 
		705.84,542.82 739.54,542.82 739.54,569.45 749.35,569.45 749.35,506.62 	"/>
	<path class="st0" d="M621.47,569.39l-18.25-19.14c9.19-2.83,15.78-11.48,15.78-21.33c0-12.3-10.01-22.3-22.3-22.3h-24.71v62.82
		h9.93v-27.15l25.82,27.09h13.73V569.39z M581.92,516.55h14.78c6.82,0,12.37,5.55,12.37,12.37s-5.55,12.37-12.37,12.37l-14.78,0.01
		V516.55z"/>
	<polygon class="st0" points="549.74,465.44 537.97,490.83 543.67,502.52 557.18,473.37 832.67,366.2 717.35,698.78 486.93,624.87 
		507.64,580.22 313.73,669.22 192.01,329.25 493.12,440.11 542.27,541.3 514.72,541.3 501.19,569.45 512.63,569.45 521.88,550.41 
		546.69,550.41 555.94,569.45 567.38,569.45 500.41,432.05 175.24,312.33 307.95,682.97 486.98,600.8 472.98,630.99 723.65,711.39 
		849.34,348.89 	"/>
	<polygon class="st0" points="486.77,506.58 486.77,549.73 443.33,506.62 439.31,506.62 439.31,569.45 449.13,569.45 449.13,526.24 
		492.71,569.44 496.58,569.45 496.58,506.58 	"/>
	<polygon class="st0" points="297.5,506.62 293.27,506.62 293.27,569.45 303.35,569.45 303.35,534.1 327.24,570.83 351.13,534.1 
		351.13,569.45 361.21,569.45 361.21,506.62 356.99,506.62 327.24,552.35 	"/>
	<path class="st0" d="M677.06,546.06c-3.29,8.29-11.37,14.15-20.83,14.15c-12.37,0-22.41-10.03-22.41-22.41s10.03-22.41,22.41-22.41
		c9.46,0,17.54,5.86,20.83,14.15h10.28c-3.65-13.77-16.19-23.93-31.11-23.93c-17.77,0-32.18,14.41-32.18,32.18
		s14.41,32.18,32.18,32.18c14.92,0,27.47-10.15,31.11-23.93h-10.28V546.06z"/>
</g>
</svg>
