<?xml version="1.0" encoding="utf-8"?>
<!-- Generator: Adobe Illustrator 25.0.0, SVG Export Plug-In . SVG Version: 6.00 Build 0)  -->
<svg version="1.1" id="图层_1" xmlns="http://www.w3.org/2000/svg" xmlns:xlink="http://www.w3.org/1999/xlink" x="0px" y="0px"
	 viewBox="0 0 1024 1024" style="enable-background:new 0 0 1024 1024;" xml:space="preserve">
<style type="text/css">
	.st0{fill:#FFFFFF;}
</style>
<g>
	<polygon points="562.42,466.3 536.11,523.05 490.41,428.91 151.87,304.28 288.72,686.49 506.72,586.43 483.44,636.63 
		742.48,719.72 872.13,345.82 	"/>
	<g>
		<g>
			<path class="st0" d="M385.88,502.57c-19.98,0-36.18,16.2-36.18,36.18s16.2,36.18,36.18,36.18s36.18-16.2,36.18-36.18
				S405.87,502.57,385.88,502.57z M385.88,563.94c-13.91,0-25.19-11.28-25.19-25.19s11.28-25.19,25.19-25.19
				s25.19,11.28,25.19,25.19S399.8,563.94,385.88,563.94z"/>
			<polygon class="st0" points="767.43,503.69 767.43,533.39 729.55,533.39 729.55,503.69 718.51,503.69 718.51,574.32 
				729.55,574.32 729.55,544.38 767.43,544.38 767.43,574.32 778.47,574.32 778.47,503.69 			"/>
			<path class="st0" d="M634.69,574.26l-20.51-21.52c10.34-3.18,17.74-12.9,17.74-23.97c0-13.83-11.25-25.07-25.07-25.07h-27.78
				v70.63h11.17V543.8l29.03,30.46H634.69z M590.23,514.86h16.61c7.67,0,13.91,6.24,13.91,13.91s-6.24,13.91-13.91,13.91
				l-16.61,0.01V514.86z"/>
			<polygon class="st0" points="270.46,503.69 265.71,503.69 265.71,574.32 277.04,574.32 277.04,534.58 303.91,575.88 
				330.77,534.58 330.77,574.32 342.1,574.32 342.1,503.69 337.35,503.69 303.91,555.1 			"/>
			<path class="st0" d="M697.19,548.03c-3.7,9.32-12.78,15.91-23.42,15.91c-13.91,0-25.19-11.28-25.19-25.19
				s11.28-25.19,25.19-25.19c10.63,0,19.72,6.59,23.42,15.91h11.56c-4.1-15.48-18.2-26.9-34.98-26.9
				c-19.98,0-36.18,16.2-36.18,36.18c0,19.98,16.2,36.18,36.18,36.18c16.77,0,30.88-11.41,34.98-26.9L697.19,548.03L697.19,548.03z"
				/>
			<polygon class="st0" points="483.25,503.64 483.25,552.16 434.42,503.69 429.9,503.69 429.9,574.32 440.94,574.32 440.94,525.74 
				489.94,574.32 494.29,574.32 494.29,503.64 			"/>
			<polygon class="st0" points="526.69,503.64 545.65,542.68 514.68,542.68 499.47,574.32 512.33,574.32 522.73,552.92 
				550.62,552.92 561.02,574.32 573.88,574.32 539.44,503.64 			"/>
		</g>
		<polygon class="st0" points="526.69,503.64 545.65,542.68 514.68,542.68 499.47,574.32 512.33,574.32 522.73,552.92 
			550.62,552.92 561.02,574.32 573.88,574.32 539.44,503.64 		"/>
	</g>
</g>
</svg>
