<?xml version="1.0" encoding="utf-8"?>
<!-- Generator: Adobe Illustrator 25.0.0, SVG Export Plug-In . SVG Version: 6.00 Build 0)  -->
<svg version="1.1" id="图层_1" xmlns="http://www.w3.org/2000/svg" xmlns:xlink="http://www.w3.org/1999/xlink" x="0px" y="0px"
	 viewBox="0 0 1024 1024" style="enable-background:new 0 0 1024 1024;" xml:space="preserve">
<style type="text/css">
	.st0{fill:#FFFFFF;}
	.st1{fill:#2F292B;}
</style>
<g>
	<rect x="0.29" y="-0.14" width="1024" height="1024"/>
	<g>
		<polygon class="st0" points="557.53,470.86 533.92,521.77 492.92,437.31 189.17,325.48 311.96,668.42 507.55,578.64 
			486.67,623.69 719.09,698.24 835.41,362.76 		"/>
		<g>
			<g>
				<path class="st1" d="M399.13,503.4c-17.93,0-32.46,14.53-32.46,32.46s14.53,32.46,32.46,32.46s32.46-14.53,32.46-32.46
					S417.06,503.4,399.13,503.4z M399.13,558.46c-12.48,0-22.6-10.12-22.6-22.6s10.12-22.6,22.6-22.6s22.6,10.12,22.6,22.6
					S411.62,558.46,399.13,558.46z"/>
				<polygon class="st1" points="741.47,504.41 741.47,531.05 707.48,531.05 707.48,504.41 697.58,504.41 697.58,567.77 
					707.48,567.77 707.48,540.91 741.47,540.91 741.47,567.77 751.37,567.77 751.37,504.41 				"/>
				<path class="st1" d="M622.37,567.72l-18.4-19.31c9.27-2.85,15.92-11.58,15.92-21.51c0-12.41-10.09-22.5-22.5-22.5h-24.93v63.37
					h10.02v-27.38l26.05,27.33H622.37z M582.48,514.42h14.91c6.88,0,12.48,5.6,12.48,12.48s-5.6,12.48-12.48,12.48l-14.91,0.01
					V514.42z"/>
				<polygon class="st1" points="295.58,504.41 291.31,504.41 291.31,567.77 301.48,567.77 301.48,532.12 325.58,569.17 
					349.68,532.12 349.68,567.77 359.85,567.77 359.85,504.41 355.58,504.41 325.58,550.53 				"/>
				<path class="st1" d="M678.44,544.19c-3.32,8.36-11.47,14.27-21.01,14.27c-12.48,0-22.6-10.12-22.6-22.6s10.12-22.6,22.6-22.6
					c9.54,0,17.69,5.91,21.01,14.27h10.37c-3.68-13.89-16.33-24.13-31.38-24.13c-17.93,0-32.46,14.53-32.46,32.46
					s14.53,32.46,32.46,32.46c15.05,0,27.71-10.24,31.38-24.13L678.44,544.19L678.44,544.19z"/>
				<polygon class="st1" points="486.5,504.36 486.5,547.89 442.68,504.4 438.63,504.4 438.63,567.77 448.53,567.77 448.53,524.19 
					492.49,567.77 496.4,567.77 496.4,504.36 				"/>
				<polygon class="st1" points="525.47,504.36 542.48,539.38 514.69,539.38 501.05,567.77 512.59,567.77 521.91,548.57 
					546.94,548.57 556.27,567.77 567.81,567.77 536.91,504.36 				"/>
			</g>
			<polygon class="st1" points="525.47,504.36 542.48,539.38 514.69,539.38 501.05,567.77 512.59,567.77 521.91,548.57 
				546.94,548.57 556.27,567.77 567.81,567.77 536.91,504.36 			"/>
		</g>
	</g>
</g>
</svg>
